<svg xmlns="http://www.w3.org/2000/svg" viewBox="0 0 1500 1107">
<rect width="1500" height="1107" fill="#F1F0EB"/>
<rect x="0" y="0" width="1500" height="34" fill="#0B0B0B"/>
<text x="14" y="23" font-family="SF Mono, Menlo, ui-monospace, monospace" font-size="12" letter-spacing="2" fill="#F1F0EB">OPENCONSULT · BOULE  ///  6 CAPABILITIES  ->  10 STAGES  ///  BRUTALIST NEO-GROTESQUE  ///  ELECTRIC BLUE ACCENT  ///  OPENCONSULT · BOULE  ///  6 CAPABILITIES  ->  10 ST</text>
<text x="48" y="92" font-family="PingFang SC, Source Han Sans SC, Heiti SC, Microsoft YaHei, sans-serif" font-size="46" font-weight="900" fill="#0B0B0B" letter-spacing="-1">能力</text>
<rect x="172" y="62" width="40" height="36" fill="#1A18EE"/>
<path d="M183,70 L201,80 L183,90 Z" fill="#F1F0EB"/>
<text x="226" y="92" font-family="PingFang SC, Source Han Sans SC, Heiti SC, Microsoft YaHei, sans-serif" font-size="46" font-weight="900" fill="#0B0B0B" letter-spacing="-1">阶段 · 映射</text>
<text x="48" y="122" font-family="PingFang SC, Source Han Sans SC, Heiti SC, Microsoft YaHei, sans-serif" font-size="13.5" fill="#6A6A63">6 能力居左 · 10 阶段居右 · 蓝线 = 该能力在哪一阶段落地 · 黑色竖向 = 流水线推进</text>
<text x="1452" y="92" font-family="SF Mono, Menlo, ui-monospace, monospace" font-size="14" letter-spacing="2" fill="#0B0B0B" text-anchor="end">No.02  STYLE-B</text>
<path d="M440,235.0 L719.0,235.0 L779.0,201.3 L1058,201.3" fill="none" stroke="#1A18EE" stroke-width="2"/>
<rect x="436" y="231.0" width="8" height="8" fill="#1A18EE"/>
<rect x="1054" y="197.3" width="8" height="8" fill="#1A18EE"/>
<path d="M440,340.5 L719.0,340.5 L779.0,456.0 L1058,456.0" fill="none" stroke="#1A18EE" stroke-width="2"/>
<rect x="436" y="336.5" width="8" height="8" fill="#1A18EE"/>
<rect x="1054" y="452.0" width="8" height="8" fill="#1A18EE"/>
<path d="M440,370.0 L719.0,370.0 L779.0,649.0 L1058,649.0" fill="none" stroke="#1A18EE" stroke-width="2"/>
<rect x="436" y="366.0" width="8" height="8" fill="#1A18EE"/>
<rect x="1054" y="645.0" width="8" height="8" fill="#1A18EE"/>
<path d="M440,399.5 L719.0,399.5 L779.0,823.0 L1058,823.0" fill="none" stroke="#1A18EE" stroke-width="2"/>
<rect x="436" y="395.5" width="8" height="8" fill="#1A18EE"/>
<rect x="1054" y="819.0" width="8" height="8" fill="#1A18EE"/>
<path d="M440,505.0 L719.0,505.0 L779.0,475.0 L1058,475.0" fill="none" stroke="#1A18EE" stroke-width="2"/>
<rect x="436" y="501.0" width="8" height="8" fill="#1A18EE"/>
<rect x="1054" y="471.0" width="8" height="8" fill="#1A18EE"/>
<path d="M440,640.0 L719.0,640.0 L779.0,562.0 L1058,562.0" fill="none" stroke="#1A18EE" stroke-width="2"/>
<rect x="436" y="636.0" width="8" height="8" fill="#1A18EE"/>
<rect x="1054" y="558.0" width="8" height="8" fill="#1A18EE"/>
<path d="M440,775.0 L719.0,775.0 L779.0,494.0 L1058,494.0" fill="none" stroke="#1A18EE" stroke-width="2"/>
<rect x="436" y="771.0" width="8" height="8" fill="#1A18EE"/>
<rect x="1054" y="490.0" width="8" height="8" fill="#1A18EE"/>
<path d="M440,890.3 L719.0,890.3 L779.0,226.7 L1058,226.7" fill="none" stroke="#1A18EE" stroke-width="2"/>
<rect x="436" y="886.3" width="8" height="8" fill="#1A18EE"/>
<rect x="1054" y="222.7" width="8" height="8" fill="#1A18EE"/>
<path d="M440,929.7 L719.0,929.7 L779.0,910.0 L1058,910.0" fill="none" stroke="#1A18EE" stroke-width="2"/>
<rect x="436" y="925.7" width="8" height="8" fill="#1A18EE"/>
<rect x="1054" y="906.0" width="8" height="8" fill="#1A18EE"/>
<text x="48" y="160" font-family="SF Mono, Menlo, ui-monospace, monospace" font-size="13" letter-spacing="2" fill="#0B0B0B">CAPABILITIES / 六能力</text>
<rect x="48" y="176" width="392" height="118" fill="#FBFAF6" stroke="#0B0B0B" stroke-width="2"/>
<text x="64" y="242" font-family="Arial Black, Helvetica Neue, sans-serif" font-size="52" font-weight="900" fill="#0B0B0B" letter-spacing="-2">01</text>
<text x="168" y="220" font-family="PingFang SC, Source Han Sans SC, Heiti SC, Microsoft YaHei, sans-serif" font-size="22" font-weight="800" fill="#0B0B0B">确定性脚手架</text>
<text x="168" y="248" font-family="PingFang SC, Source Han Sans SC, Heiti SC, Microsoft YaHei, sans-serif" font-size="13" fill="#6A6A63">Phase 0 秒级骨架，不调模型、</text>
<text x="168" y="268" font-family="PingFang SC, Source Han Sans SC, Heiti SC, Microsoft YaHei, sans-serif" font-size="13" fill="#6A6A63">不耗 token</text>
<rect x="386" y="188" width="42" height="20" fill="#1A18EE"/>
<path d="M394,193 L402,198 L394,203 Z" fill="#F1F0EB"/>
<text x="410" y="203" font-family="SF Mono, Menlo, ui-monospace, monospace" font-size="13" fill="#F1F0EB">1</text>
<rect x="48" y="311" width="392" height="118" fill="#FBFAF6" stroke="#0B0B0B" stroke-width="2"/>
<text x="64" y="377" font-family="Arial Black, Helvetica Neue, sans-serif" font-size="52" font-weight="900" fill="#0B0B0B" letter-spacing="-2">02</text>
<text x="168" y="355" font-family="PingFang SC, Source Han Sans SC, Heiti SC, Microsoft YaHei, sans-serif" font-size="22" font-weight="800" fill="#0B0B0B">多角色 agent 编排</text>
<text x="168" y="383" font-family="PingFang SC, Source Han Sans SC, Heiti SC, Microsoft YaHei, sans-serif" font-size="13" fill="#6A6A63">7+3 阶段 DAG，fan-out</text>
<text x="168" y="403" font-family="PingFang SC, Source Han Sans SC, Heiti SC, Microsoft YaHei, sans-serif" font-size="13" fill="#6A6A63"> 并发 + 串行放行闸</text>
<rect x="386" y="323" width="42" height="20" fill="#1A18EE"/>
<path d="M394,328 L402,333 L394,338 Z" fill="#F1F0EB"/>
<text x="410" y="338" font-family="SF Mono, Menlo, ui-monospace, monospace" font-size="13" fill="#F1F0EB">3</text>
<rect x="48" y="446" width="392" height="118" fill="#FBFAF6" stroke="#0B0B0B" stroke-width="2"/>
<text x="64" y="512" font-family="Arial Black, Helvetica Neue, sans-serif" font-size="52" font-weight="900" fill="#0B0B0B" letter-spacing="-2">03</text>
<text x="168" y="490" font-family="PingFang SC, Source Han Sans SC, Heiti SC, Microsoft YaHei, sans-serif" font-size="22" font-weight="800" fill="#0B0B0B">真实联网检索</text>
<text x="168" y="518" font-family="PingFang SC, Source Han Sans SC, Heiti SC, Microsoft YaHei, sans-serif" font-size="13" fill="#6A6A63">Aditly MCP 真检索，带来源</text>
<text x="168" y="538" font-family="PingFang SC, Source Han Sans SC, Heiti SC, Microsoft YaHei, sans-serif" font-size="13" fill="#6A6A63"> URL 落报告</text>
<rect x="386" y="458" width="42" height="20" fill="#1A18EE"/>
<path d="M394,463 L402,468 L394,473 Z" fill="#F1F0EB"/>
<text x="410" y="473" font-family="SF Mono, Menlo, ui-monospace, monospace" font-size="13" fill="#F1F0EB">1</text>
<rect x="48" y="581" width="392" height="118" fill="#FBFAF6" stroke="#0B0B0B" stroke-width="2"/>
<text x="64" y="647" font-family="Arial Black, Helvetica Neue, sans-serif" font-size="52" font-weight="900" fill="#0B0B0B" letter-spacing="-2">04</text>
<text x="168" y="625" font-family="PingFang SC, Source Han Sans SC, Heiti SC, Microsoft YaHei, sans-serif" font-size="22" font-weight="800" fill="#0B0B0B">对抗验证三票</text>
<text x="168" y="653" font-family="PingFang SC, Source Han Sans SC, Heiti SC, Microsoft YaHei, sans-serif" font-size="13" fill="#6A6A63">每条断言独立三票裁决，refute </text>
<text x="168" y="673" font-family="PingFang SC, Source Han Sans SC, Heiti SC, Microsoft YaHei, sans-serif" font-size="13" fill="#6A6A63">优先</text>
<rect x="386" y="593" width="42" height="20" fill="#1A18EE"/>
<path d="M394,598 L402,603 L394,608 Z" fill="#F1F0EB"/>
<text x="410" y="608" font-family="SF Mono, Menlo, ui-monospace, monospace" font-size="13" fill="#F1F0EB">1</text>
<rect x="48" y="716" width="392" height="118" fill="#FBFAF6" stroke="#0B0B0B" stroke-width="2"/>
<text x="64" y="782" font-family="Arial Black, Helvetica Neue, sans-serif" font-size="52" font-weight="900" fill="#0B0B0B" letter-spacing="-2">05</text>
<text x="168" y="760" font-family="PingFang SC, Source Han Sans SC, Heiti SC, Microsoft YaHei, sans-serif" font-size="22" font-weight="800" fill="#0B0B0B">AI persona 访谈</text>
<text x="168" y="788" font-family="PingFang SC, Source Han Sans SC, Heiti SC, Microsoft YaHei, sans-serif" font-size="13" fill="#6A6A63">atypica 3–5 访谈，bas</text>
<text x="168" y="808" font-family="PingFang SC, Source Han Sans SC, Heiti SC, Microsoft YaHei, sans-serif" font-size="13" fill="#6A6A63">is simulated ≤20%</text>
<rect x="386" y="728" width="42" height="20" fill="#1A18EE"/>
<path d="M394,733 L402,738 L394,743 Z" fill="#F1F0EB"/>
<text x="410" y="743" font-family="SF Mono, Menlo, ui-monospace, monospace" font-size="13" fill="#F1F0EB">1</text>
<rect x="48" y="851" width="392" height="118" fill="#FBFAF6" stroke="#0B0B0B" stroke-width="2"/>
<text x="64" y="917" font-family="Arial Black, Helvetica Neue, sans-serif" font-size="52" font-weight="900" fill="#0B0B0B" letter-spacing="-2">06</text>
<text x="168" y="895" font-family="PingFang SC, Source Han Sans SC, Heiti SC, Microsoft YaHei, sans-serif" font-size="22" font-weight="800" fill="#0B0B0B">Web-CLI 协同</text>
<text x="168" y="923" font-family="PingFang SC, Source Han Sans SC, Heiti SC, Microsoft YaHei, sans-serif" font-size="13" fill="#6A6A63">boule mcp 入口 + git</text>
<text x="168" y="943" font-family="PingFang SC, Source Han Sans SC, Heiti SC, Microsoft YaHei, sans-serif" font-size="13" fill="#6A6A63">-linked 交付</text>
<rect x="386" y="863" width="42" height="20" fill="#1A18EE"/>
<path d="M394,868 L402,873 L394,878 Z" fill="#F1F0EB"/>
<text x="410" y="878" font-family="SF Mono, Menlo, ui-monospace, monospace" font-size="13" fill="#F1F0EB">2</text>
<text x="1058" y="160" font-family="SF Mono, Menlo, ui-monospace, monospace" font-size="13" letter-spacing="2" fill="#0B0B0B">PIPELINE / 十阶段</text>
<path d="M1208,154 l8,0 l0,-5 l9,8 l-9,8 l0,-5 l-8,0 Z" fill="#0B0B0B"/>
<rect x="1058" y="176" width="396" height="76" fill="#FBFAF6" stroke="#0B0B0B" stroke-width="2"/>
<text x="1080" y="228" font-family="Arial Black, Helvetica Neue, sans-serif" font-size="38" font-weight="900" fill="#0B0B0B" letter-spacing="-1">0</text>
<line x1="1168" y1="190" x2="1168" y2="238" stroke="#0B0B0B" stroke-width="1.5"/>
<text x="1184" y="210" font-family="PingFang SC, Source Han Sans SC, Heiti SC, Microsoft YaHei, sans-serif" font-size="21" font-weight="800" fill="#0B0B0B">Phase 0 · 脚手架</text>
<text x="1184" y="234" font-family="SF Mono, Menlo, ui-monospace, monospace" font-size="12.5" letter-spacing="0.5" fill="#1A18EE">SCAFFOLD · 0 TOKEN</text>
<rect x="1408" y="226" width="36" height="18" fill="none" stroke="#0B0B0B" stroke-width="1.5"/>
<text x="1426" y="239" font-family="SF Mono, Menlo, ui-monospace, monospace" font-size="11" fill="#0B0B0B" text-anchor="middle">2IN</text>
<line x1="1256.0" y1="252" x2="1256.0" y2="263" stroke="#0B0B0B" stroke-width="3"/>
<path d="M1250.0,258 L1256.0,264 L1262.0,258 Z" fill="#0B0B0B"/>
<rect x="1058" y="263" width="396" height="76" fill="#FBFAF6" stroke="#0B0B0B" stroke-width="2"/>
<text x="1080" y="315" font-family="Arial Black, Helvetica Neue, sans-serif" font-size="38" font-weight="900" fill="#0B0B0B" letter-spacing="-1">1</text>
<line x1="1168" y1="277" x2="1168" y2="325" stroke="#0B0B0B" stroke-width="1.5"/>
<text x="1184" y="297" font-family="PingFang SC, Source Han Sans SC, Heiti SC, Microsoft YaHei, sans-serif" font-size="21" font-weight="800" fill="#0B0B0B">Phase 1 · 接案</text>
<text x="1184" y="321" font-family="SF Mono, Menlo, ui-monospace, monospace" font-size="12.5" letter-spacing="0.5" fill="#1A18EE">SINGLE · INTAKE</text>
<line x1="1256.0" y1="339" x2="1256.0" y2="350" stroke="#0B0B0B" stroke-width="3"/>
<path d="M1250.0,345 L1256.0,351 L1262.0,345 Z" fill="#0B0B0B"/>
<rect x="1058" y="350" width="396" height="76" fill="#FBFAF6" stroke="#0B0B0B" stroke-width="2"/>
<rect x="1058" y="350" width="9" height="76" fill="#1A18EE"/>
<text x="1080" y="402" font-family="Arial Black, Helvetica Neue, sans-serif" font-size="38" font-weight="900" fill="#0B0B0B" letter-spacing="-1">1.5</text>
<line x1="1168" y1="364" x2="1168" y2="412" stroke="#0B0B0B" stroke-width="1.5"/>
<text x="1184" y="384" font-family="PingFang SC, Source Han Sans SC, Heiti SC, Microsoft YaHei, sans-serif" font-size="21" font-weight="800" fill="#0B0B0B">Phase 1.5 · 调研轴</text>
<text x="1184" y="408" font-family="PingFang SC, Source Han Sans SC, Heiti SC, Microsoft YaHei, sans-serif" font-size="12.5" letter-spacing="0.5" fill="#1A18EE">SINGLE · 插入闸</text>
<line x1="1256.0" y1="426" x2="1256.0" y2="437" stroke="#0B0B0B" stroke-width="3"/>
<path d="M1250.0,432 L1256.0,438 L1262.0,432 Z" fill="#0B0B0B"/>
<rect x="1058" y="437" width="396" height="76" fill="#FBFAF6" stroke="#0B0B0B" stroke-width="2"/>
<text x="1080" y="489" font-family="Arial Black, Helvetica Neue, sans-serif" font-size="38" font-weight="900" fill="#0B0B0B" letter-spacing="-1">2</text>
<line x1="1168" y1="451" x2="1168" y2="499" stroke="#0B0B0B" stroke-width="1.5"/>
<text x="1184" y="471" font-family="PingFang SC, Source Han Sans SC, Heiti SC, Microsoft YaHei, sans-serif" font-size="21" font-weight="800" fill="#0B0B0B">Phase 2 · 行业调研</text>
<text x="1184" y="495" font-family="PingFang SC, Source Han Sans SC, Heiti SC, Microsoft YaHei, sans-serif" font-size="12.5" letter-spacing="0.5" fill="#1A18EE">FAN-OUT · 4–8 并发</text>
<rect x="1408" y="487" width="36" height="18" fill="none" stroke="#0B0B0B" stroke-width="1.5"/>
<text x="1426" y="500" font-family="SF Mono, Menlo, ui-monospace, monospace" font-size="11" fill="#0B0B0B" text-anchor="middle">3IN</text>
<line x1="1256.0" y1="513" x2="1256.0" y2="524" stroke="#0B0B0B" stroke-width="3"/>
<path d="M1250.0,519 L1256.0,525 L1262.0,519 Z" fill="#0B0B0B"/>
<rect x="1058" y="524" width="396" height="76" fill="#FBFAF6" stroke="#0B0B0B" stroke-width="2"/>
<rect x="1058" y="524" width="9" height="76" fill="#1A18EE"/>
<text x="1080" y="576" font-family="Arial Black, Helvetica Neue, sans-serif" font-size="38" font-weight="900" fill="#0B0B0B" letter-spacing="-1">2.5</text>
<line x1="1168" y1="538" x2="1168" y2="586" stroke="#0B0B0B" stroke-width="1.5"/>
<text x="1184" y="558" font-family="PingFang SC, Source Han Sans SC, Heiti SC, Microsoft YaHei, sans-serif" font-size="21" font-weight="800" fill="#0B0B0B">Phase 2.5 · 对抗验证</text>
<text x="1184" y="582" font-family="PingFang SC, Source Han Sans SC, Heiti SC, Microsoft YaHei, sans-serif" font-size="12.5" letter-spacing="0.5" fill="#1A18EE">VERIFY · 三票 · 插入闸</text>
<rect x="1408" y="574" width="36" height="18" fill="none" stroke="#0B0B0B" stroke-width="1.5"/>
<text x="1426" y="587" font-family="SF Mono, Menlo, ui-monospace, monospace" font-size="11" fill="#0B0B0B" text-anchor="middle">1IN</text>
<line x1="1256.0" y1="600" x2="1256.0" y2="611" stroke="#0B0B0B" stroke-width="3"/>
<path d="M1250.0,606 L1256.0,612 L1262.0,606 Z" fill="#0B0B0B"/>
<rect x="1058" y="611" width="396" height="76" fill="#FBFAF6" stroke="#0B0B0B" stroke-width="2"/>
<text x="1080" y="663" font-family="Arial Black, Helvetica Neue, sans-serif" font-size="38" font-weight="900" fill="#0B0B0B" letter-spacing="-1">3</text>
<line x1="1168" y1="625" x2="1168" y2="673" stroke="#0B0B0B" stroke-width="1.5"/>
<text x="1184" y="645" font-family="PingFang SC, Source Han Sans SC, Heiti SC, Microsoft YaHei, sans-serif" font-size="21" font-weight="800" fill="#0B0B0B">Phase 3 · 战略综合</text>
<text x="1184" y="669" font-family="PingFang SC, Source Han Sans SC, Heiti SC, Microsoft YaHei, sans-serif" font-size="12.5" letter-spacing="0.5" fill="#1A18EE">SINGLE · 纯推理</text>
<rect x="1408" y="661" width="36" height="18" fill="none" stroke="#0B0B0B" stroke-width="1.5"/>
<text x="1426" y="674" font-family="SF Mono, Menlo, ui-monospace, monospace" font-size="11" fill="#0B0B0B" text-anchor="middle">1IN</text>
<line x1="1256.0" y1="687" x2="1256.0" y2="698" stroke="#0B0B0B" stroke-width="3"/>
<path d="M1250.0,693 L1256.0,699 L1262.0,693 Z" fill="#0B0B0B"/>
<rect x="1058" y="698" width="396" height="76" fill="#FBFAF6" stroke="#0B0B0B" stroke-width="2"/>
<rect x="1058" y="698" width="9" height="76" fill="#1A18EE"/>
<text x="1080" y="750" font-family="Arial Black, Helvetica Neue, sans-serif" font-size="38" font-weight="900" fill="#0B0B0B" letter-spacing="-1">3.5</text>
<line x1="1168" y1="712" x2="1168" y2="760" stroke="#0B0B0B" stroke-width="1.5"/>
<text x="1184" y="732" font-family="PingFang SC, Source Han Sans SC, Heiti SC, Microsoft YaHei, sans-serif" font-size="21" font-weight="800" fill="#0B0B0B">Phase 3.5 · 评审合议</text>
<text x="1184" y="756" font-family="SF Mono, Menlo, ui-monospace, monospace" font-size="12.5" letter-spacing="0.5" fill="#1A18EE">PANEL · 五视角合议 · 插入闸</text>
<rect x="1408" y="748" width="36" height="18" fill="none" stroke="#0B0B0B" stroke-width="1.5"/>
<text x="1426" y="761" font-family="SF Mono, Menlo, ui-monospace, monospace" font-size="11" fill="#0B0B0B" text-anchor="middle">1IN</text>
<line x1="1256.0" y1="774" x2="1256.0" y2="785" stroke="#0B0B0B" stroke-width="3"/>
<path d="M1250.0,780 L1256.0,786 L1262.0,780 Z" fill="#0B0B0B"/>
<rect x="1058" y="785" width="396" height="76" fill="#FBFAF6" stroke="#0B0B0B" stroke-width="2"/>
<text x="1080" y="837" font-family="Arial Black, Helvetica Neue, sans-serif" font-size="38" font-weight="900" fill="#0B0B0B" letter-spacing="-1">4</text>
<line x1="1168" y1="799" x2="1168" y2="847" stroke="#0B0B0B" stroke-width="1.5"/>
<text x="1184" y="819" font-family="PingFang SC, Source Han Sans SC, Heiti SC, Microsoft YaHei, sans-serif" font-size="21" font-weight="800" fill="#0B0B0B">Phase 4 · 三筛放行</text>
<text x="1184" y="843" font-family="SF Mono, Menlo, ui-monospace, monospace" font-size="12.5" letter-spacing="0.5" fill="#1A18EE">SERIAL · EDITOR 1-2-3</text>
<rect x="1408" y="835" width="36" height="18" fill="none" stroke="#0B0B0B" stroke-width="1.5"/>
<text x="1426" y="848" font-family="SF Mono, Menlo, ui-monospace, monospace" font-size="11" fill="#0B0B0B" text-anchor="middle">1IN</text>
<line x1="1256.0" y1="861" x2="1256.0" y2="872" stroke="#0B0B0B" stroke-width="3"/>
<path d="M1250.0,867 L1256.0,873 L1262.0,867 Z" fill="#0B0B0B"/>
<rect x="1058" y="872" width="396" height="76" fill="#FBFAF6" stroke="#0B0B0B" stroke-width="2"/>
<text x="1080" y="924" font-family="Arial Black, Helvetica Neue, sans-serif" font-size="38" font-weight="900" fill="#0B0B0B" letter-spacing="-1">5</text>
<line x1="1168" y1="886" x2="1168" y2="934" stroke="#0B0B0B" stroke-width="1.5"/>
<text x="1184" y="906" font-family="PingFang SC, Source Han Sans SC, Heiti SC, Microsoft YaHei, sans-serif" font-size="21" font-weight="800" fill="#0B0B0B">Phase 5 · 交付</text>
<text x="1184" y="930" font-family="PingFang SC, Source Han Sans SC, Heiti SC, Microsoft YaHei, sans-serif" font-size="12.5" letter-spacing="0.5" fill="#1A18EE">SINGLE · 签名分享</text>
<rect x="1408" y="922" width="36" height="18" fill="none" stroke="#0B0B0B" stroke-width="1.5"/>
<text x="1426" y="935" font-family="SF Mono, Menlo, ui-monospace, monospace" font-size="11" fill="#0B0B0B" text-anchor="middle">1IN</text>
<line x1="1256.0" y1="948" x2="1256.0" y2="959" stroke="#0B0B0B" stroke-width="3"/>
<path d="M1250.0,954 L1256.0,960 L1262.0,954 Z" fill="#0B0B0B"/>
<rect x="1058" y="959" width="396" height="76" fill="#FBFAF6" stroke="#0B0B0B" stroke-width="2"/>
<text x="1080" y="1011" font-family="Arial Black, Helvetica Neue, sans-serif" font-size="38" font-weight="900" fill="#0B0B0B" letter-spacing="-1">6</text>
<line x1="1168" y1="973" x2="1168" y2="1021" stroke="#0B0B0B" stroke-width="1.5"/>
<text x="1184" y="993" font-family="PingFang SC, Source Han Sans SC, Heiti SC, Microsoft YaHei, sans-serif" font-size="21" font-weight="800" fill="#0B0B0B">Phase 6 · 热点回灌</text>
<text x="1184" y="1017" font-family="PingFang SC, Source Han Sans SC, Heiti SC, Microsoft YaHei, sans-serif" font-size="12.5" letter-spacing="0.5" fill="#1A18EE">SINGLE · 可 SKIP</text>
<rect x="48" y="1063" width="1404" height="32" fill="#0B0B0B"/>
<rect x="62" y="1074" width="22" height="11" fill="#1A18EE"/>
<text x="92" y="1084" font-family="PingFang SC, Source Han Sans SC, Heiti SC, Microsoft YaHei, sans-serif" font-size="12.5" fill="#F1F0EB">蓝线 = 能力落点</text>
<rect x="262" y="1071" width="9" height="17" fill="#1A18EE"/>
<text x="280" y="1084" font-family="PingFang SC, Source Han Sans SC, Heiti SC, Microsoft YaHei, sans-serif" font-size="12.5" fill="#F1F0EB">蓝左条 = +3 插入闸（1.5 / 2.5 / 3.5）</text>
<path d="M560,1074 l11,0 l0,-4 l7,9 l-7,9 l0,-4 l-11,0 Z" fill="#F1F0EB"/>
<text x="586" y="1084" font-family="PingFang SC, Source Han Sans SC, Heiti SC, Microsoft YaHei, sans-serif" font-size="12.5" fill="#F1F0EB">黑竖向 = 流水线推进 · 每阶段间 CHECKPOINT 人工放行</text>
<text x="1438" y="1084" font-family="PingFang SC, Source Han Sans SC, Heiti SC, Microsoft YaHei, sans-serif" font-size="12.5" fill="#F1F0EB" text-anchor="end">P2 = 研究枢纽 · 3 路落点</text>
</svg>